<svg xmlns="http://www.w3.org/2000/svg" width="963" height="343" viewBox="0 0 963 343">
  <metadata><?xpacket begin="﻿" id="W5M0MpCehiHzreSzNTczkc9d"?>
<x:xmpmeta xmlns:x="adobe:ns:meta/" x:xmptk="Adobe XMP Core 5.6-c138 79.159824, 2016/09/14-01:09:01        ">
   <rdf:RDF xmlns:rdf="http://www.w3.org/1999/02/22-rdf-syntax-ns#">
      <rdf:Description rdf:about=""/>
   </rdf:RDF>
</x:xmpmeta>
                                                                                                    
                                                                                                    
                                                                                                    
                                                                                                    
                                                                                                    
                                                                                                    
                                                                                                    
                                                                                                    
                                                                                                    
                                                                                                    
                                                                                                    
                                                                                                    
                                                                                                    
                                                                                                    
                                                                                                    
                                                                                                    
                                                                                                    
                                                                                                    
                                                                                                    
                                                                                                    
                           
<?xpacket end="w"?></metadata>
<defs>
    <style>
      .cls-1, .cls-2, .cls-3, .cls-4 {
        fill: #002dd4;
        fill-rule: evenodd;
      }

      .cls-1 {
        opacity: 0.3;
      }

      .cls-2 {
        opacity: 0.1;
      }

      .cls-3 {
        opacity: 0.2;
      }

      .cls-4 {
        opacity: 0.15;
      }
    </style>
  </defs>
  <path class="cls-1" d="M1.991,332.907s119.627,13.456,234.269-44.851c0,0,129.6-70.641,324.986,16.819,0,0,133.584,69.52,321-20.183,0,0,36.885-23.548,78.755-3.364v60.549H0.994Z"/>
  <path class="cls-2" d="M0,61.108S329,521.891,960,0V343H0V61.108Z"/>
  <path id="Shape_3_copy" data-name="Shape 3 copy" class="cls-2" d="M960,158.685S430,431.706,0,0V343H960V158.685Z"/>
  <path class="cls-3" d="M2.993,217.518s86.091,5.607,216.228-43.738c0,0,156.165-66.166,353.374,21.308,0,0,223.236,91.96,389.411-16.823V342H0.991Z"/>
  <path class="cls-4" d="M1,150.5s100.9-49.315,240.752,17.932c0,0,153.842,82.939,288.7,25.778,0,0,271.721-122.166,430.557-20.174v167H2.995Z"/>
  <path class="cls-2" d="M1,122.117s154.84-48.239,296.693,62.824c0,0,141.854,106.576,303.687,2.244,0,0,169.824-139.11,361.626-70.677V342H2Z"/>
</svg>
